PathFileType  4	(X/Y/Z) C:\Users\antoi\Documents\MyRepositories\mobilecap\ResultsAnalysis
DataRate	CameraRate	NumFrames	NumMarkers	Units	OrigDataRate	OrigDataStartFrame	OrigNumFrames
100.0	100.0	6	51	mm	100.0	1	279
Frame#	Time	r_knee			r_shank_antsup			r_ankle			r_calc			r_5meta			r_toe			L_knee			L_shank_antsup			L_ankle			L_calc			L_5meta			L_toe			r_sh2			r_sh3			r_sh4			L_sh2			L_sh3			r_thigh1			r_thigh2			r_thigh3			r_thigh4			r_thigh5			L_thigh1			L_thigh2			L_thigh3			L_thigh4			r.ASIS			r.PSIS			L.ASIS			L.PSIS			C7			R_Shoulder			L_Shoulder			R_Sternum			L_Sternum			R_humerus			R_elbow_med			R_elbow_lat			R_forearm			R_wrist_radius			R_wrist_ulna			L_humerus			L_elbow_med			L_elbow_lat			L_forearm			L_wrist_radius			L_wrist_ulna			R_HJC			L_HJC			R_HJC_reg			L_HJC_reg			
		X1	Y1	Z1	X2	Y2	Z2	X3	Y3	Z3	X4	Y4	Z4	X5	Y5	Z5	X6	Y6	Z6	X7	Y7	Z7	X8	Y8	Z8	X9	Y9	Z9	X10	Y10	Z10	X11	Y11	Z11	X12	Y12	Z12	X13	Y13	Z13	X14	Y14	Z14	X15	Y15	Z15	X16	Y16	Z16	X17	Y17	Z17	X18	Y18	Z18	X19	Y19	Z19	X20	Y20	Z20	X21	Y21	Z21	X22	Y22	Z22	X23	Y23	Z23	X24	Y24	Z24	X25	Y25	Z25	X26	Y26	Z26	X27	Y27	Z27	X28	Y28	Z28	X29	Y29	Z29	X30	Y30	Z30	X31	Y31	Z31	X32	Y32	Z32	X33	Y33	Z33	X34	Y34	Z34	X35	Y35	Z35	X36	Y36	Z36	X37	Y37	Z37	X38	Y38	Z38	X39	Y39	Z39	X40	Y40	Z40	X41	Y41	Z41	X42	Y42	Z42	X43	Y43	Z43	X44	Y44	Z44	X45	Y45	Z45	X46	Y46	Z46	X47	Y47	Z47	X48	Y48	Z48	X49	Y49	Z49	X50	Y50	Z50	X51	Y51	Z51	

1	0.00000000	-1258.36485	845.16365	-446.68385	-1237.37919	765.62649	-431.28338	-1305.98426	407.81377	-454.28850	-1362.12113	357.33681	-502.67246	-1166.55077	345.54006	-403.52082	-1127.82213	370.20603	-461.37857	-1233.19453	844.27928	-746.31705	-1210.70814	723.85185	-759.24511	-1294.58227	406.31314	-743.37713	-1363.93767	359.30114	-706.48785	-1119.24293	370.34284	-711.85163	-1142.47253	342.13031	-775.26065	-1245.29822	654.32995	-423.56357	-1310.78734	771.02594	-416.93708	-1327.65324	655.56599	-417.61672	-1296.07005	743.16790	-780.29356	-1308.35740	620.91775	-776.53276	-1201.77198	1166.28795	-416.90202	-1188.93040	1056.89181	-427.40984	-1239.63624	1022.43629	-402.77669	-1315.22116	1146.54972	-416.26020	-1292.41288	1032.07159	-416.11485	-1188.65961	1173.77287	-768.41878	-1167.99482	1035.11327	-764.54100	-1304.87509	1152.24099	-786.05402	-1276.16870	1014.31709	-777.89547	-1182.66434	1354.15369	-463.94747	-1368.85399	1417.57225	-545.62044	-1179.26344	1349.65640	-723.90866	-1368.26932	1414.79580	-652.10131	-1336.41630	1921.37061	-611.05451	-1298.20672	1884.17385	-439.58073	-1279.04016	1888.26881	-767.33159	-1192.44567	1842.81828	-569.38581	-1190.73182	1839.32331	-629.43891	-1339.61692	1622.55971	-338.61095	-1355.34592	1530.18305	-414.55834	-1361.90210	1533.68421	-325.30193	-1251.54700	1415.51070	-308.03238	-1174.13467	1328.69220	-318.85643	-1212.54467	1313.92918	-299.60614	-1302.20325	1633.59946	-863.77113	-1357.23470	1539.52495	-807.31340	-1329.79121	1544.98038	-872.51217	-1238.84771	1395.58304	-877.45090	-1181.01164	1315.29702	-859.90253	-1215.04273	1298.59652	-873.81468	-1277.25873	1287.12467	-471.92749	-1271.40981	1282.72509	-702.17920	-1265.18730	1289.50697	-499.62309	-1264.24534	1285.03376	-671.17693	
2	0.01000000	-1256.30847	844.71786	-447.11985	-1235.55143	765.33798	-431.21146	-1305.84454	407.80468	-454.28134	-1362.12658	357.33563	-502.70441	-1166.50056	345.60074	-403.54792	-1127.84151	370.22338	-461.43748	-1232.28450	844.07125	-746.03271	-1209.95326	723.63699	-759.13326	-1294.58657	406.31744	-743.37015	-1363.17808	359.40245	-706.86364	-1119.31671	370.50492	-711.89338	-1142.52079	342.23898	-775.24634	-1244.09939	652.78274	-423.20517	-1308.81815	770.51662	-417.37207	-1326.52155	655.54442	-417.82003	-1295.24113	743.13863	-780.32659	-1308.06889	620.69632	-776.01673	-1202.35963	1166.00486	-416.44736	-1188.25361	1057.25671	-427.78915	-1238.53112	1022.29895	-403.09411	-1315.01551	1146.01580	-416.19366	-1291.38083	1031.73188	-416.00241	-1188.68736	1173.77191	-768.41361	-1167.46546	1035.07522	-764.35352	-1304.82957	1151.78862	-785.99697	-1275.67895	1013.89571	-777.50719	-1183.38277	1353.98622	-463.91042	-1369.76584	1417.68966	-545.43810	-1179.43353	1349.29257	-723.93351	-1368.90676	1414.52344	-652.39197	-1335.41717	1921.51808	-611.37607	-1297.73913	1884.11972	-439.67937	-1278.16282	1888.14354	-767.37135	-1191.86526	1842.38082	-569.42001	-1190.08964	1838.88897	-629.57435	-1339.80398	1622.69803	-338.66257	-1356.41253	1529.70322	-414.35093	-1362.02463	1533.78234	-325.05616	-1249.96344	1417.12180	-307.99791	-1171.47460	1331.40011	-319.24163	-1209.47585	1316.21299	-299.42941	-1301.87493	1633.83347	-864.41137	-1357.05966	1539.67610	-808.44834	-1329.47971	1545.34634	-873.97195	-1237.45402	1396.35441	-878.12602	-1178.93946	1316.78970	-860.50286	-1212.79723	1299.77528	-874.65420	-1278.04550	1287.05360	-471.87710	-1271.93343	1282.46783	-702.11819	-1266.08955	1289.74635	-499.59508	-1264.71141	1284.66759	-671.17742	
3	0.02000000	-1254.17559	844.40575	-447.38119	-1233.70129	764.98952	-431.16584	-1305.73726	407.86612	-454.26529	-1362.15056	357.33638	-502.75195	-1166.50640	345.64326	-403.60272	-1127.86278	370.26123	-461.48988	-1231.26049	844.01350	-746.20552	-1209.04510	723.40229	-759.11856	-1294.59863	406.31624	-743.36547	-1362.96861	359.41685	-707.01853	-1119.38960	370.67234	-711.91956	-1142.56035	342.37680	-775.21619	-1242.93410	652.16696	-423.01085	-1306.82028	770.44316	-417.39614	-1325.17831	655.56501	-417.90696	-1294.36496	743.09703	-780.25631	-1307.54770	620.35416	-775.59375	-1202.50114	1165.84416	-416.43617	-1187.11921	1057.49553	-428.09730	-1237.51116	1022.07603	-403.41428	-1314.77312	1145.31893	-416.05332	-1290.41011	1031.27509	-415.94506	-1188.67253	1173.77125	-768.39477	-1166.94784	1035.07239	-764.16932	-1304.72028	1151.35931	-785.90546	-1275.19866	1013.44109	-776.91772	-1184.28364	1353.72440	-463.81266	-1370.54083	1417.52397	-545.49148	-1179.54749	1348.82521	-723.83751	-1369.48230	1414.25174	-652.54800	-1334.53462	1921.49325	-611.64409	-1297.25094	1884.02507	-439.83359	-1277.26700	1887.92471	-767.17813	-1191.27223	1841.91836	-569.40198	-1189.44173	1838.41786	-629.57023	-1339.94152	1622.79752	-338.74420	-1356.70280	1529.67917	-414.16793	-1362.04439	1533.86897	-324.85945	-1248.41555	1418.77785	-307.86664	-1168.76904	1334.19885	-319.37197	-1206.54682	1318.45602	-299.33615	-1301.55104	1634.09022	-865.18539	-1356.83234	1539.75476	-809.59290	-1329.15021	1545.62025	-875.07658	-1235.95727	1397.24769	-878.97673	-1176.78967	1318.26890	-861.15604	-1210.48754	1300.93467	-875.27593	-1278.91634	1286.82417	-471.83911	-1272.36057	1282.12286	-702.06546	-1266.87104	1289.54793	-499.59246	-1265.17370	1284.30315	-671.17989	
4	0.03000000	-1251.85851	844.28248	-447.32727	-1231.73370	764.59020	-431.15531	-1305.66544	407.95248	-454.25060	-1362.18803	357.34579	-502.80804	-1166.54361	345.68994	-403.67843	-1127.87583	370.33432	-461.54321	-1230.16186	843.92819	-746.47368	-1208.11589	723.07579	-759.03674	-1294.61998	406.31314	-743.35252	-1363.45582	359.28472	-706.83672	-1119.46808	370.82242	-711.92565	-1142.63730	342.51516	-775.11335	-1241.61599	651.93754	-423.23159	-1305.06085	771.23583	-417.10640	-1323.67756	655.61989	-417.84302	-1293.49450	742.94897	-780.00059	-1306.91965	620.08346	-775.34212	-1202.47124	1165.87502	-416.41016	-1185.55256	1057.53675	-428.50626	-1236.44817	1021.88549	-403.52659	-1314.50974	1144.51642	-415.96383	-1289.47930	1030.61917	-415.97508	-1188.68346	1173.82116	-768.40345	-1166.43138	1035.09038	-763.97389	-1304.54121	1150.94811	-785.76059	-1274.59088	1013.20428	-776.95026	-1185.13596	1353.50183	-463.64548	-1371.26402	1417.21256	-545.52294	-1180.12507	1348.58920	-723.46907	-1370.02714	1413.98761	-652.64286	-1333.76157	1921.25961	-611.78236	-1296.76403	1883.88725	-440.07591	-1276.29891	1887.68444	-767.00054	-1190.67846	1841.42693	-569.36813	-1188.73836	1837.84081	-629.33839	-1339.98086	1622.88289	-338.79109	-1356.63604	1529.78343	-414.03199	-1361.98542	1533.92806	-324.72375	-1246.84240	1420.40079	-307.77751	-1166.03424	1336.98272	-319.37402	-1203.66996	1320.68635	-299.25921	-1301.12814	1634.36851	-866.09569	-1356.54968	1539.76164	-810.80136	-1328.77555	1545.83457	-876.03491	-1234.36101	1398.20022	-879.90877	-1174.52698	1319.72442	-861.81115	-1208.05811	1302.09467	-875.88548	-1279.75411	1286.57711	-471.73159	-1272.86906	1281.85481	-701.94840	-1267.66153	1289.27065	-499.55730	-1265.68244	1284.10820	-671.01422	
5	0.04000000	-1249.46206	844.13273	-447.28150	-1229.64075	764.16288	-431.17672	-1305.57776	407.96597	-454.27248	-1362.22773	357.35863	-502.84819	-1166.55129	345.76399	-403.74804	-1127.87615	370.42474	-461.59581	-1229.10554	843.60041	-746.20103	-1207.31726	722.69235	-758.77925	-1294.65636	406.31700	-743.33376	-1364.18966	359.06476	-706.49125	-1119.58232	370.94749	-711.94158	-1142.79270	342.65844	-774.93925	-1240.12629	651.44947	-423.62950	-1303.44445	772.17170	-416.87682	-1322.13069	655.67314	-417.69025	-1292.59570	742.76916	-779.82175	-1306.30705	620.07890	-775.39421	-1202.59110	1166.18367	-416.08244	-1184.31998	1057.44893	-429.07399	-1235.33316	1021.74202	-403.49456	-1314.28241	1143.74828	-416.03110	-1288.53275	1029.90942	-416.03305	-1188.71719	1173.81872	-768.43321	-1165.84040	1035.08181	-763.68517	-1304.32508	1150.46267	-785.70692	-1273.84351	1013.16108	-777.71107	-1185.71050	1353.37993	-463.32763	-1372.00754	1416.85199	-545.52677	-1181.08987	1348.58035	-722.95789	-1370.62595	1413.71276	-652.77025	-1332.92780	1921.01253	-611.84652	-1296.24572	1883.73593	-440.32216	-1275.23363	1887.50813	-767.15947	-1190.06548	1840.90491	-569.36016	-1187.98607	1837.27755	-629.18390	-1339.90992	1622.98923	-338.73884	-1356.52808	1529.90336	-413.89620	-1361.88821	1533.94813	-324.58602	-1245.19940	1421.89221	-307.85057	-1163.27701	1339.67529	-319.37984	-1200.68449	1322.90191	-299.26308	-1300.56392	1634.65344	-866.97835	-1356.19022	1539.70114	-811.98996	-1328.29561	1546.07058	-877.25989	-1232.69322	1399.08435	-880.76537	-1172.19211	1321.15865	-862.43775	-1205.51990	1303.27119	-876.68680	-1280.45146	1286.39908	-471.54593	-1273.42442	1281.65322	-701.75812	-1268.37552	1289.00935	-499.36948	-1266.16919	1283.99409	-670.69422	
6	0.05000000	-1247.18899	843.87199	-447.49085	-1227.49527	763.74990	-431.16049	-1305.44874	407.91886	-454.33182	-1362.26941	357.36069	-502.85371	-1166.53362	345.85314	-403.81862	-1127.88258	370.49466	-461.63519	-1228.06628	843.20774	-745.67138	-1206.53881	722.36929	-758.59324	-1294.71432	406.32828	-743.32696	-1364.48249	358.90359	-706.32651	-1119.72868	371.07643	-711.97495	-1142.98064	342.84790	-774.80300	-1238.67235	650.95602	-423.77516	-1301.35132	772.03790	-416.80632	-1320.53566	655.74985	-417.50631	-1291.61967	742.69324	-779.94839	-1305.66570	620.19566	-775.66733	-1202.64554	1166.48293	-416.10245	-1184.04181	1057.42682	-429.49609	-1234.32605	1021.48813	-403.62633	-1314.14192	1143.03162	-416.10919	-1287.54921	1029.38965	-415.97258	-1188.54292	1173.63321	-768.28859	-1165.16587	1035.04139	-763.33251	-1304.04172	1149.96140	-785.76726	-1273.11479	1012.88886	-778.03436	-1186.42113	1353.02651	-462.97694	-1372.69721	1416.29401	-545.87694	-1181.62043	1348.29332	-722.67010	-1371.28115	1413.41042	-652.88694	-1331.92515	1920.86462	-611.94488	-1295.65503	1883.56152	-440.49551	-1274.10364	1887.33071	-767.44777	-1189.38868	1840.33504	-569.33664	-1187.27603	1836.96801	-629.77805	-1339.75198	1623.09294	-338.62483	-1356.12408	1530.27346	-413.66972	-1361.71178	1533.93182	-324.35604	-1243.54165	1423.28735	-307.96251	-1160.50364	1342.33964	-319.33701	-1197.63732	1325.06743	-299.41587	-1299.95411	1634.87487	-867.64649	-1355.69207	1539.56564	-812.99794	-1327.68889	1546.31850	-878.66971	-1230.96614	1399.87777	-881.55548	-1169.82743	1322.57136	-863.11910	-1202.93768	1304.39901	-877.50234	-1281.25503	1286.00099	-471.52555	-1273.82460	1281.29835	-701.72495	-1268.92561	1288.30220	-499.19731	-1266.65777	1283.68587	-670.57632	
